<?xml version="1.0" encoding="utf-8"?>
<!-- Generator: Adobe Illustrator 20.1.0, SVG Export Plug-In . SVG Version: 6.00 Build 0)  -->
<svg version="1.1" id="Capa_1" xmlns="http://www.w3.org/2000/svg" xmlns:xlink="http://www.w3.org/1999/xlink" x="0px" y="0px"
	 viewBox="0 0 64 64" style="enable-background:new 0 0 64 64;" xml:space="preserve">
<g>
	<path d="M37.3,32L62.9,6.4c1.5-1.5,1.5-3.8,0-5.3c-1.5-1.5-3.8-1.5-5.3,0L32,26.7L6.4,1.1c-1.5-1.5-3.8-1.5-5.3,0
		c-1.5,1.5-1.5,3.8,0,5.3L26.7,32L1.1,57.6c-1.5,1.5-1.5,3.8,0,5.3C1.8,63.6,2.8,64,3.8,64c1,0,1.9-0.4,2.7-1.1L32,37.3l25.6,25.6
		c0.7,0.7,1.7,1.1,2.7,1.1c1,0,1.9-0.4,2.7-1.1c1.5-1.5,1.5-3.8,0-5.3L37.3,32z"/>
</g>
</svg>
